PathFileType	4	(X/Y/Z)	c:/Users/goper/Files/vsCode/490R/osim_files/C15/C15_Fast_02.trc
DataRate	CameraRate	NumFrames	NumMarkers	Units                	OrigDataRate	OrigDataStartFrame	OrigNumFrames
250.00	250.00	11	36	mm	250.0	531	2123
                Frame#	Time	LPSIS			LASIS			LTH1			LTH2			LTH3			LTH4			LLFE			LMFE			LSH1			LSH2			LSH3			LSH4			LLMAL			LMMAL			LCAL			LMTP5			LTOE			LMTP1			RPSIS			RASIS			RTH1			RTH2			RTH3			RTH4			RLFE			RMFE			RSH1			RSH2			RSH3			RSH4			RLMAL			RMMAL			RCAL			RMTP1			RTOE			RMTP5		
		X1	Y1	Z1	X2	Y2	Z2	X3	Y3	Z3	X4	Y4	Z4	X5	Y5	Z5	X6	Y6	Z6	X7	Y7	Z7	X8	Y8	Z8	X9	Y9	Z9	X10	Y10	Z10	X11	Y11	Z11	X12	Y12	Z12	X13	Y13	Z13	X14	Y14	Z14	X15	Y15	Z15	X16	Y16	Z16	X17	Y17	Z17	X18	Y18	Z18	X19	Y19	Z19	X20	Y20	Z20	X21	Y21	Z21	X22	Y22	Z22	X23	Y23	Z23	X24	Y24	Z24	X25	Y25	Z25	X26	Y26	Z26	X27	Y27	Z27	X28	Y28	Z28	X29	Y29	Z29	X30	Y30	Z30	X31	Y31	Z31	X32	Y32	Z32	X33	Y33	Z33	X34	Y34	Z34	X35	Y35	Z35	X36	Y36	Z36

531	2.12000	1658.12170	1021.25659	208.75037	0.00000	0.00000	0.00000	1446.10303	620.64624	354.00198	1428.19360	578.61755	340.26553	1402.26990	647.79675	351.82632	1386.43726	608.57410	345.67865	1393.91626	518.76990	321.48932	0.00000	0.00000	0.00000	1456.00366	417.27817	333.55417	1456.72412	371.97076	340.11621	1392.47681	409.26877	338.81802	1401.53918	365.02213	344.45718	1437.53784	101.62277	288.68909	1402.10156	129.24438	205.04512	1489.25769	78.24607	233.55193	1323.67444	48.26383	328.32382	1257.72791	78.46769	280.47501	0.00000	0.00000	0.00000	1653.63477	1024.84753	88.23811	1499.22986	991.10260	24.34264	1590.17480	624.84277	-14.65594	1595.85876	581.08435	-5.55356	1530.79211	618.53076	2.79179	0.00000	0.00000	0.00000	0.00000	0.00000	0.00000	1618.98230	473.56067	141.33545	1695.95886	388.97919	8.27595	1702.90186	345.73248	7.30316	0.00000	0.00000	0.00000	1655.26672	333.27292	10.39629	1729.66150	86.22238	83.88097	1698.20520	108.69473	169.80339	1793.41003	61.70549	129.14026	1595.94385	35.29845	175.13467	1559.79932	53.77237	123.69269	1619.48840	30.55813	54.88842
532	2.12400	1653.70581	1020.63373	209.15495	0.00000	0.00000	0.00000	1442.19873	619.65979	353.56323	1425.66309	578.58716	340.21716	1400.05188	647.62384	353.72385	1382.41077	607.45319	345.24164	1390.09351	518.14502	321.43512	0.00000	0.00000	0.00000	1445.38757	411.79602	331.31198	1445.94751	366.94113	337.92239	1386.09937	408.67969	338.54395	1394.06091	364.17230	344.26093	1424.78113	101.22900	289.82642	1388.34473	128.07545	205.57376	1476.15857	76.53388	235.14658	1307.62537	49.11320	328.65546	1242.78308	81.16235	280.73672	0.00000	0.00000	0.00000	1649.47424	1024.38135	88.61664	0.00000	0.00000	0.00000	1587.58740	624.55139	-14.64749	1593.51611	580.89618	-5.56244	1528.61194	618.56354	2.04628	0.00000	0.00000	0.00000	0.00000	0.00000	0.00000	1617.22888	473.40475	141.31500	1694.61560	389.21542	8.36763	1701.69043	345.85806	7.39104	0.00000	0.00000	0.00000	1654.20569	333.21057	10.32316	1729.49158	86.49647	83.91579	1697.91931	108.91461	169.84164	1793.34338	61.98143	129.18069	1596.27026	35.50073	175.26683	1559.76123	53.62323	123.61604	1619.47607	30.49158	54.87069
533	2.12800	1649.20605	1019.97461	209.57413	0.00000	0.00000	0.00000	1438.20715	618.50916	353.12714	1420.11829	576.38770	339.23178	1396.18652	646.67145	353.32904	1378.50598	606.33136	344.93326	1385.23071	517.14453	320.78122	0.00000	0.00000	0.00000	1439.33215	409.71320	330.99985	1440.45691	366.05246	338.48312	1378.96765	407.34708	337.96121	1386.50867	363.33212	343.93503	1408.56604	97.87707	289.82422	1374.28760	126.05811	207.07083	1460.92859	73.12055	235.86377	1291.43042	50.12738	328.95990	1228.09204	83.93414	281.06561	0.00000	0.00000	0.00000	1645.31055	1023.89948	89.01777	1491.26404	990.00592	24.42548	1585.03955	624.31537	-14.65792	1591.08984	580.63055	-5.50292	1523.95789	617.14923	3.77336	0.00000	0.00000	0.00000	0.00000	0.00000	0.00000	1615.46594	473.31689	141.33221	1693.23730	389.39142	8.45784	1700.49243	346.11081	7.43118	0.00000	0.00000	0.00000	1653.06738	333.17526	10.27842	1729.36108	86.77008	83.98680	1697.59839	109.03822	169.83340	1793.23438	62.27065	129.22527	1596.27686	35.51595	175.26591	1559.69641	53.47754	123.55671	1619.46362	30.47637	54.84990
534	2.13200	1644.77173	1019.34625	209.98915	0.00000	0.00000	0.00000	1436.62085	618.74908	353.81396	1416.26843	575.26556	338.81421	1391.33606	644.92889	352.06036	1374.53833	605.06421	344.58774	1380.90552	516.30670	320.35895	1359.27209	500.41199	204.09448	1433.34692	407.61594	330.57251	1431.64319	362.70166	337.31201	1373.74109	407.27722	337.90982	1379.55750	362.63263	343.80328	1395.75391	97.47867	291.00607	1360.74805	125.29925	207.51996	1444.24707	68.46851	235.78279	1275.85107	51.58116	329.21497	1213.06543	86.81980	280.82626	0.00000	0.00000	0.00000	1641.16418	1023.32886	89.38316	1487.32520	989.48090	24.41725	1582.39160	624.03217	-14.64373	1586.60925	579.06995	-4.72276	1521.35486	616.60114	3.85413	0.00000	0.00000	0.00000	0.00000	0.00000	0.00000	1613.58142	473.12021	141.31305	1691.81934	389.53693	8.52882	1699.23792	346.29590	7.49197	0.00000	0.00000	0.00000	1651.97827	333.16370	10.26004	1729.25513	87.05147	84.04524	1697.47791	109.37054	169.94058	1793.17920	62.58083	129.26927	1596.26025	35.49638	175.23322	1559.69336	53.38191	123.51385	1619.43237	30.40857	54.79760
535	2.13600	1640.30334	1018.66357	210.41829	0.00000	0.00000	0.00000	1430.45044	616.05151	352.43130	1412.42603	574.00781	338.36670	1387.46765	643.65601	351.90326	0.00000	0.00000	0.00000	1377.25073	515.53650	320.20575	1355.20837	499.32196	203.72734	1427.41345	405.52042	330.07626	1424.66455	360.62369	336.97369	1366.90967	405.90292	337.33017	1372.57178	361.85013	343.67487	1379.97388	94.86987	290.78369	1347.52014	124.76629	207.91759	1431.23071	67.31791	237.19208	1259.79175	52.68006	329.25455	1198.73572	89.97261	281.07654	0.00000	0.00000	0.00000	1636.96057	1022.74078	89.80676	1483.19629	988.83569	24.58453	1579.70081	623.71460	-14.56953	1586.25684	580.13416	-5.44340	1520.52429	616.50470	3.26522	0.00000	0.00000	0.00000	0.00000	0.00000	0.00000	1611.58655	472.89581	141.28351	1690.29053	389.71484	8.59485	1697.92334	346.40295	7.53490	0.00000	0.00000	0.00000	0.00000	0.00000	0.00000	1729.09717	87.29720	84.05421	1697.17578	109.50217	169.93349	1792.94263	62.75764	129.24413	1596.21716	35.47889	175.20958	1559.58801	53.22427	123.50609	1619.41675	30.37445	54.80727
536	2.14000	1635.79919	1017.95306	210.88702	0.00000	0.00000	0.00000	1426.65039	614.73102	352.24493	1408.68872	572.71863	337.98785	1384.28345	642.50562	352.15353	1366.88782	602.29706	344.16708	1372.44592	514.36700	319.51245	0.00000	0.00000	0.00000	1421.60278	403.45593	329.60999	1419.60889	359.79282	337.44977	1358.35669	403.37939	334.91428	1365.70837	360.99194	343.47159	1365.85425	93.61742	291.17877	1334.36536	124.42063	208.25745	1416.49805	64.76796	237.77882	1245.16797	55.03248	329.49246	1184.48340	93.46163	280.92862	0.00000	0.00000	0.00000	1632.41455	1022.01636	90.30975	1479.24426	988.34723	24.59485	1577.07300	623.47601	-14.54553	1581.67139	578.60388	-4.64916	1517.64062	615.79095	3.42174	0.00000	0.00000	0.00000	0.00000	0.00000	0.00000	1609.51331	472.67999	141.29695	1688.75024	389.84457	8.64654	1696.67297	346.75677	7.62265	0.00000	0.00000	0.00000	1649.59595	333.10489	10.34103	1728.88196	87.51228	84.06648	1696.86926	109.66412	169.96582	1792.76282	62.99811	129.26907	1595.84106	35.26472	175.03128	1559.60876	53.18073	123.47387	1619.46143	30.45290	54.79818
537	2.14400	1631.28992	1017.23175	211.33694	0.00000	0.00000	0.00000	1422.91235	613.41583	352.09708	1405.00427	571.40393	337.63034	1380.13147	641.11224	352.00952	1363.12744	600.83319	343.89597	1368.90918	513.51599	319.34396	0.00000	0.00000	0.00000	1415.68091	401.23972	329.10971	1411.00012	356.58212	336.19623	1351.88489	401.90198	335.64539	1358.72607	360.10217	343.31873	1352.26074	92.74722	291.51392	1321.46912	124.25423	208.52541	1401.94507	62.44746	238.23761	1230.22253	57.05972	329.66782	1170.67871	97.10419	280.89310	0.00000	0.00000	0.00000	1628.54578	1021.60590	90.72097	1475.24341	987.84637	24.65061	1574.40613	623.22638	-14.52904	1581.30652	579.67297	-5.35529	1514.94885	615.28015	3.57504	0.00000	0.00000	0.00000	0.00000	0.00000	0.00000	1607.49072	472.56998	141.34152	1687.22070	390.14526	8.79261	1695.30701	346.95468	7.73138	0.00000	0.00000	0.00000	1648.39417	333.03293	10.34592	1728.68958	87.88210	84.09392	1696.47119	109.85970	169.98198	1792.62598	63.35043	129.29369	1596.12964	35.44355	175.17099	1559.55359	53.13604	123.45272	1619.49414	30.46301	54.76677
538	2.14800	1626.74402	1016.51263	211.80688	0.00000	0.00000	0.00000	1419.19092	612.02557	351.97018	1401.48376	570.14502	337.38547	1376.40503	639.63843	352.09570	0.00000	0.00000	0.00000	1364.31653	512.27142	318.66788	0.00000	0.00000	0.00000	1409.77405	399.11426	328.58987	1404.06665	354.44598	335.72482	1347.01196	401.41919	335.51920	1352.75049	359.81656	343.61606	1338.45386	91.79007	291.69611	1309.20911	125.32007	207.65001	1387.18225	59.82506	238.25664	1215.61682	59.25041	329.62527	1157.19763	100.89244	280.88605	0.00000	0.00000	0.00000	1624.32849	1020.98633	91.15132	1471.15979	987.29297	24.71434	1571.61328	622.92853	-14.44409	1578.81396	579.48407	-5.30470	1512.29968	614.78986	3.66039	0.00000	0.00000	0.00000	0.00000	0.00000	0.00000	1605.41418	472.45312	141.38046	1685.62451	390.39993	8.88538	1693.86609	347.30255	7.77131	0.00000	0.00000	0.00000	1647.06067	333.00864	10.33861	1728.53125	88.35255	84.17664	1696.20056	110.20130	170.00734	1792.51709	63.82765	129.31004	1596.03198	35.40840	175.12343	1559.61682	53.04005	123.55623	1619.46021	30.40359	54.72200
539	2.15200	1622.16577	1015.78912	212.28250	0.00000	0.00000	0.00000	1415.54272	610.63806	351.85855	1397.89709	568.75153	337.12964	1372.46411	637.94690	352.13995	0.00000	0.00000	0.00000	1360.67761	511.23663	318.34409	0.00000	0.00000	0.00000	1404.66504	397.49173	328.35886	1399.24683	354.27863	337.22760	1342.13135	400.95746	335.48648	1345.37659	358.46783	343.08118	1325.04858	91.09164	291.82034	1296.71899	125.42861	207.76675	1373.41895	58.51228	238.85332	1201.45068	61.54285	329.63721	1144.05554	104.69603	280.79333	0.00000	0.00000	0.00000	1620.09277	1020.36133	91.61385	1467.18140	986.84967	24.72338	1568.88416	622.67859	-14.41252	1576.23633	579.24628	-5.26025	1509.70215	614.49945	3.73158	0.00000	0.00000	0.00000	0.00000	0.00000	0.00000	1603.07031	472.24036	141.37309	1683.85706	390.60629	8.99615	1692.39404	347.48383	7.87431	0.00000	0.00000	0.00000	1645.65198	333.08994	10.39816	1728.23389	88.65216	84.18678	1695.91101	110.51340	170.07193	1792.42065	64.22353	129.37755	1595.99329	35.43528	175.08481	1559.56995	53.03599	123.51443	1619.51831	30.53244	54.77632
540	2.15600	1617.59509	1015.03033	212.77295	0.00000	0.00000	0.00000	1412.01270	609.26917	351.77756	1394.36084	567.32056	336.94958	1369.36255	636.59882	352.64136	1352.22119	596.26337	343.88718	1357.02356	510.02234	318.28064	0.00000	0.00000	0.00000	1398.72693	395.33142	327.96088	1390.30200	350.34689	334.91797	1337.23486	400.40305	335.39917	1338.49878	357.49759	342.95270	1313.57446	91.92530	292.38696	1283.77844	124.54282	208.93604	1359.61182	56.94878	238.99719	1187.45312	63.97554	329.56821	1131.41492	108.40221	280.89954	0.00000	0.00000	0.00000	1615.87354	1019.71912	92.07265	0.00000	0.00000	0.00000	1566.08020	622.37946	-14.30772	1573.64978	579.01892	-5.18373	1506.74231	613.79840	3.86317	0.00000	0.00000	0.00000	0.00000	0.00000	0.00000	1600.77844	472.05151	141.42691	1682.06299	390.80530	9.09275	1690.92883	347.89862	8.00234	0.00000	0.00000	0.00000	1644.30823	333.19357	10.42339	1728.05981	89.04217	84.26087	1695.49219	110.71639	170.10139	1792.27393	64.65996	129.39946	1595.91382	35.43375	175.04324	1559.53320	53.00674	123.49201	1619.44287	30.48817	54.78057
541	2.16000	1612.96191	1014.23541	213.28215	0.00000	0.00000	0.00000	1408.44824	607.85626	351.78210	1390.86072	565.90283	336.82599	1365.67480	634.97119	352.79700	1348.61292	594.78101	343.91898	1352.64893	508.68542	317.77631	0.00000	0.00000	0.00000	1391.88806	392.57819	327.32452	1382.10742	347.40179	333.88364	1332.74512	400.19724	335.38382	1331.75891	356.58429	342.81522	1299.10645	90.12517	291.85187	1271.87524	124.94124	208.83374	1346.01428	55.48971	239.01627	1174.00537	66.50874	329.37692	1118.84558	112.38784	280.44662	0.00000	0.00000	0.00000	1611.63550	1019.02112	92.54921	1458.89490	985.74121	24.90915	1563.29797	622.13354	-14.28505	1570.94116	578.70978	-5.07790	1503.97717	613.27844	3.87889	0.00000	0.00000	0.00000	0.00000	0.00000	0.00000	1598.44104	471.88852	141.47484	1682.45386	393.26752	10.65065	1689.38306	348.09424	8.12740	0.00000	0.00000	0.00000	1642.91284	333.31952	10.42442	1727.85938	89.47615	84.31103	1695.03235	110.98801	170.15154	1792.01917	65.12704	129.44257	1595.84460	35.41776	174.97183	1559.49072	52.95873	123.43102	1619.45483	30.50637	54.74739
